<svg xmlns="http://www.w3.org/2000/svg" width="280" height="56" viewBox="0 0 280 56"><title>Group 33</title><path fill="#1765f6" fill-rule="evenodd" d="M266.282 29.439a2.533 2.533 0 0 1-2.905-2.1 2.54 2.54 0 0 1 2.094-2.915 2.533 2.533 0 0 1 2.905 2.1 2.54 2.54 0 0 1-2.094 2.915m-139.544 6.304a10.15 10.15 0 0 0 1.247-4.684c0-2.111-.615-3.797-1.862-5.092-1.248-1.296-2.893-1.934-4.936-1.934-2.386 0-4.412.852-6.057 2.573-1.645 1.72-2.477 3.92-2.477 6.636 0 2.093.633 3.761 1.88 5.039 1.248 1.277 2.875 1.916 4.846 1.916a8.43 8.43 0 0 0 4.285-1.083c1.211-.71 2.242-1.845 3.074-3.37m2.82-13.307.253.408H135l-2.73 22.463h-6.599l.398-2.857c-1.465 1.33-2.803 2.254-4.068 2.768a11 11 0 0 1-4.231.781c-3.598 0-6.473-1.295-8.588-3.886Q106 38.21 106 33.046c.005-2.633.709-5.22 2.043-7.505a14.7 14.7 0 0 1 5.478-5.554A14.05 14.05 0 0 1 120.7 18c1.681 0 3.941.373 5.352 1.136a9.5 9.5 0 0 1 3.507 3.3m18.333 1.983a1.37 1.37 0 0 0-.633 1.117c.026.436.21.85.521 1.17.317.39 1.304 1.153 2.96 2.27 2.626 1.791 4.357 3.334 5.195 4.61a7.4 7.4 0 0 1 1.247 4.168c0 1.968-.857 3.848-2.55 5.603-1.695 1.755-4.17 2.642-7.41 2.642a12 12 0 0 1-5.101-1.081c-1.527-.71-3.24-2.022-5.12-3.937l4.245-4.699c1.917 2.411 4.021 3.618 6.292 3.618.913 0 1.639-.213 2.178-.621a1.8 1.8 0 0 0 .801-1.472c0-.443-.205-.904-.614-1.4-.41-.497-1.545-1.349-3.37-2.59-2.122-1.436-3.593-2.66-4.394-3.688-1.135-1.437-1.694-2.961-1.694-4.557 0-2.235.894-4.06 2.663-5.462 1.768-1.4 3.853-2.11 6.274-2.11a10.64 10.64 0 0 1 4.821 1.153A10.46 10.46 0 0 1 158 22.415l-3.277 4.983c-.856-1.188-1.73-2.057-2.662-2.624-.93-.568-1.806-.851-2.606-.851a2.55 2.55 0 0 0-1.564.496m22.422 10.655L179.164 19H186l-20.302 37H159l7.336-13.62L159.052 19h6.233zm-68.268-12.206c1.501.253 2.595 1.587 2.573 3.139-.005 1.76-1.403 3.187-3.13 3.192l-12.708-.018-1.304 9.541 12.344-.018c1.704-.02 3.101 1.374 3.12 3.113S101.594 44.98 99.89 45H80l4.816-36h19.055c1.728 0 3.129 1.43 3.129 3.192s-1.401 3.192-3.13 3.192l-13.195.018-1.009 7.466zM213.87 9c1.728 0 3.129 1.43 3.129 3.192s-1.401 3.192-3.13 3.192l-13.195.018-1.008 7.466h12.378c1.5.257 2.598 1.586 2.59 3.139-.004 1.76-1.403 3.187-3.13 3.192l-12.708-.018-1.304 9.541 12.344-.018c1.704-.02 3.102 1.374 3.12 3.113.02 1.738-1.346 3.163-3.05 3.183H190l4.816-36zm26.367 24.668c1.296-1.968 1.927-4.398 1.962-7.324 0-2.376-.455-4.363-1.367-5.976a9.3 9.3 0 0 0-3.838-3.725c-1.647-.868-3.855-1.312-6.588-1.312h-1.683l-3.136 23.373h2.19c3.382 0 5.836-.283 7.343-.85a10.57 10.57 0 0 0 5.117-4.186m8.761-7.43a20.06 20.06 0 0 1-2.576 10.02c-1.7 3.032-3.872 5.249-6.483 6.65q-3.917 2.091-10.883 2.092H218l4.854-36h5.643q7.929.01 11.793 1.898c2.576 1.277 4.662 3.263 6.29 5.976q2.42 4.044 2.42 9.364m26.417-.387L280 45h-6.341l-1.844-7.66h-13.82L254.03 45H247l18.818-36h5.514l2.62 10.848-4.826 2.743a5.47 5.47 0 0 0-3.222-1.05c-2.87 0-5.283 2.223-5.615 5.169-.36 3.206 1.862 6.107 4.963 6.48s5.909-1.924 6.27-5.13zM22.644 35.834c2.824 0 5.13 2.312 5.13 5.144a5.125 5.125 0 0 1-5.13 5.143 5.125 5.125 0 0 1-5.13-5.143c0-2.832 2.289-5.144 5.13-5.144M65.52 18.163a15.7 15.7 0 0 0-6.166-3.836C54.78 2.714 41.678-3.003 30.097 1.584a22.5 22.5 0 0 0-5.058 2.797 23 23 0 0 0-4.647 4.57 19 19 0 0 0-2.234-.144C8.132 8.807 0 16.962 0 27.017c0 7.85 4.986 14.66 12.117 17.169C13.494 48.72 17.676 52 22.644 52c6.059 0 10.992-4.946 10.992-11.022 0-.484-.036-.95-.09-1.398l15.496-7.814-.125-.251 1.465-.735-2.984-5.932-1.466.735-.125-.251-15.478 7.778a10.92 10.92 0 0 0-7.685-3.154c-4.432 0-8.239 2.634-9.99 6.416a10.88 10.88 0 0 1-4.969-12.098c1.501-5.807 7.435-9.284 13.226-7.778a10.9 10.9 0 0 1 3.002 1.29c2.645-8.01 11.278-12.348 19.249-9.696A15.31 15.31 0 0 1 53.51 20.87c.268-.019.554-.037.822-.037 4.683 0 8.49 3.818 8.49 8.513a8.51 8.51 0 0 1-7.757 8.478h-6.238v7.348h6.56l.321-.036c8.686-.735 15.138-8.388 14.405-17.116a15.92 15.92 0 0 0-4.593-9.857"/></svg>