<svg xmlns="http://www.w3.org/2000/svg" width="4622.727" height="1014.152" viewBox="0 0 4622.727 1014.152"><path d="M1232.227 621.06q-5 13-23 40-14 20-27 36-33 41-43 51l-16 14q-20 20-32 31-10 9-34 28-86 69-202 117-111 45-237 65-64 10-114 11-55 1-115-9-108-17-190-59.5t-134-113.5q-25-35-42-83-20-55-21-103l15 32q16 32 35 55l21 24q71 78 187 106 100 23 227 9 79-8 145-28 62-19 134-54 46-22 92.5-61.5t78.5-82.5l4-6q12-18 15-20zm639-408q9 0 15 7t4 16q-73 319-90 374-15 48-37 81-25 36-62 62-76 53-177 53-62 0-132-17-8-1-12-7.5t-2-14.5l26-107q2-8 8.5-12t14.5-3q39 7 73 10 51 4 78-2.5t45-26.5q15-18 27-50 8-22 18-67l33-138q2-9-3.5-16.5t-14.5-8.5h-5q-9-1-14.5-8t-3.5-16l22-95q1-6 6.5-10t12.5-4zm847-9q130 0 189 52 22 19 32.5 53.5t7.5 66.5q-2 10-5 20-2 6-7 9.5t-11 3.5h-123q-7 0-13-4.5t-7-12.5q-1-4-3-8-10-19-33-30.5t-55-11.5q-29 0-59.5 14t-51.5 40q-24 28-31 64l-21 82q-13 54 1 87 19 43 82 43h1q35 0 55-6 35-10 55-41 5-7 8-14 6-11 18-11h120q10 0 15.5 7.5t3.5 15.5l-4 12q-26 76-93 120-80 51-204 51-126 0-187-66t-35-174l29-122q26-107 115.5-173.5t210.5-66.5m1141 0q130 0 189 52 22 19 32.5 53.5t7.5 66.5q-2 10-5 20-2 6-7 9.5t-11 3.5h-123q-7 0-13-4.5t-7-12.5q-1-4-3-8-10-19-33-30.5t-55-11.5q-29 0-59.5 14t-51.5 40q-24 28-31 64l-21 82q-13 54 1 87 19 43 82 43h1q35 0 55-6 35-10 55-41 3-5 8.5-15t17.5-10h120q9 0 15 7.5t4 15.5l-4 12q-26 76-93 120-80 51-204 51-126 0-187-66t-35-174l29-122q26-107 115.5-173.5t210.5-66.5m-1750 9q9 0 14.5 7t3.5 16l-97 403q-2 9 4 16.5t15 7.5h244q9 0 15 7.5t4 16.5l-23 96q-2 6-7 10.5t-12 4.5h-411q-10 0-15.5-7.5t-3.5-16.5l131-547q2-6 7-10t12-4zm1185 0q98 0 151 36 42 29 54 79 8 37-1 75l-2 9q-12 51-28 82-30 56-85 88-72 40-186 40h-102l-39 161q-2 7-7 11t-12 4h-119q-9 0-15-7.5t-3-16.5l130-547q2-6 7-10t12-4zm-169 277h95q48 0 77.5-21t37-55-13-55.5-68.5-21.5h-95zm1270-277q111 0 168 29 45 23 56 64 7 26 0 66-4 21-12 38.5t-22 35.5q-26 32-82 50 49 13 66 50 15 30 7 72-6 32-22 63-13 25-27 39-33 34-80 53-63 25-156 25h-235q-10 0-15.5-7.5t-3.5-16.5l131-547q1-6 6.5-10t12.5-4zm-129 340q-7 0-12 4t-7 10l-21 87q-2 9 4 16t15 7h56q55 0 85-22 20-15 26-37 4-13 0-26-5-17-20-27-19-12-53-12zm46-231q-7 0-9 8l-29 114q-1 4 1.5 8t7.5 4l18 1h38q21-1 42.5-6.5t36.5-15 24-23.5q8-10 10-21 9-36-14-52.5t-79-16.5zm-3470-78q-3 13-22 104l-1 9q-25 121-31 151l-1 5 160 1-17 83-245 1 72-354zm-593 238q-12 54-50.5 84.5t-96 30.5-84-32-15.5-86l4-20h85l-5 21q-4 22 4 32 7 9 24 9 20 0 33.5-12.5t17.5-34.5l48-232h84zm940-237q56-2 92 22t44 69q1 4 1 14v10l-81-1-2-5q-9-21-24.5-31t-40.5-9q-38 1-65.5 30t-35.5 79 10.5 77.5 56.5 26.5q24-1 46-14t35-35l1-2h81q-8 22-18 38-27 38-66.5 59.5t-89.5 23.5h-8q-54 0-87-26-29-23-40-63-9-37-2-81 12-75 58-123 53-56 135-59m-858 101q35-48 96-76 57-27 118.5-28.5t102.5 23.5q44 28 49 81 4 39-12 74t-46 58-66 28q-33 4-49-8-9-6-14-19l-2-4-8 6q-15 12-31 17-29 10-53 0t-26.5-35.5 13.5-54.5 43-48q29-22 61-24 21-1 31 5 7 4 10 12l7-13h43l-24 51q-23 53-23.5 65t11.5 15q9 2 24-2 12-3 20-8 26-16 39.5-48t7.5-64q-6-33-30-51-31-23-78.5-23t-94.5 22q-49 22-80 61-35 42-39 96-4 39 17 66 19 23 54 34 32 10 68 6 24-2 47-10 12-4 19-6l7 31q-10 6-36 13-23 5-41 7-64 5-109-15-42-18-60.5-55t-9.5-84 44-95m198 40q-1-8-11-11.5t-21-.5q-17 4-31.5 18.5t-21 32-3.5 29.5q5 16 25.5 13t35.5-18q4-4 15.5-32.5t11.5-30.5m275-386q76-1 147.5 14.5t129.5 45.5q33 18 65.5 41.5t56.5 48.5q16 16 31 35 20 24 24 36l-280-1q-1-5-10-17-7-10-13-16-42-50-97-75-100-46-242-36-112 9-244 52-13 4-44 15.5t-40 14.5l25-13q20-11 30-16 98-47 178-75 151-51 283-54" style="fill:#0072fc;fill-opacity:1"/></svg>